<svg xmlns="http://www.w3.org/2000/svg" viewBox="0 0 100 100" fill="none">
  <defs>
    <linearGradient id="gg" x1="0%" y1="0%" x2="100%" y2="100%">
      <stop offset="0%" stop-color="#38BDF8" />
      <stop offset="100%" stop-color="#3B82F6" />
    </linearGradient>
    <linearGradient id="gg2" x1="0%" y1="100%" x2="100%" y2="0%">
      <stop offset="0%" stop-color="#60A5FA" />
      <stop offset="100%" stop-color="#818CF8" />
    </linearGradient>
  </defs>
  <!-- Corporate Shield Container -->
  <path d="M50 8 L84 22 V50 C84 70 69 86 50 92 C31 86 16 70 16 50 V22 Z" stroke="url(#gg)" stroke-width="3" fill="rgba(59,130,246,0.08)"/>
  <!-- Central Stylized G Monogram / Facility Crest -->
  <path d="M68 36 C64 30 57 26 50 26 C37 26 28 36 28 50 C28 64 37 74 50 74 C62 74 69 66 70 56 H50 V46 H80 C81 68 68 84 50 84 C31 84 18 70 18 50 C18 30 31 16 50 16 C60 16 70 21 76 30 Z" fill="url(#gg2)" />
  <circle cx="50" cy="50" r="4" fill="#FFFFFF" />
</svg>
